<svg width="115" height="40" viewBox="0 0 115 40" fill="none" xmlns="http://www.w3.org/2000/svg">
<path d="M2.99039 0.483337L110.946 0.675106C112.455 0.675106 113.802 0.451455 113.802 3.68513L113.67 39.2366H0.266113V3.55297C0.266113 1.95832 0.420468 0.483337 2.99039 0.483337Z" fill="#AAB2AB"/>
<path d="M112.145 0H2.14014C0.960316 0 0 0.959752 0 2.13946V39.5171C0 39.7837 0.216725 40 0.483378 40H113.802C114.069 40 114.286 39.7837 114.286 39.5171V2.13946C114.286 0.959752 113.325 0 112.145 0ZM2.14013 0.96668H112.145C112.793 0.96668 113.319 1.49253 113.319 2.13946C113.319 2.13946 113.319 17.2321 113.319 28.1165H34.4377C31.5559 33.327 26.0038 36.8648 19.6319 36.8648C13.2572 36.8648 7.70652 33.3303 4.82605 28.1165H0.96677C0.96677 17.2321 0.96677 2.13946 0.96677 2.13946C0.966779 1.49254 1.49314 0.96668 2.14013 0.96668Z" fill="black"/>
<path d="M70.2944 31.188C70.5948 31.188 70.8693 31.2148 71.1179 31.2675C71.3656 31.3202 71.5773 31.407 71.7548 31.5281C71.9313 31.6482 72.069 31.8091 72.1661 32.0087C72.2631 32.2092 72.3121 32.456 72.3121 32.7508C72.3121 33.0687 72.24 33.333 72.0949 33.5447C71.9507 33.7572 71.7363 33.93 71.4535 34.0659C71.8435 34.1777 72.1347 34.3736 72.3269 34.6537C72.5191 34.9337 72.6153 35.271 72.6153 35.6656C72.6153 35.9835 72.5533 36.2589 72.4295 36.4918C72.3056 36.7238 72.1383 36.9142 71.9295 37.0611C71.7196 37.209 71.4803 37.318 71.2122 37.3883C70.9433 37.4594 70.6678 37.4946 70.3841 37.4946H67.321V31.188H70.2944V31.188ZM70.117 33.7387C70.3647 33.7387 70.568 33.6796 70.7279 33.5622C70.8869 33.4449 70.9664 33.2545 70.9664 32.9902C70.9664 32.8432 70.9395 32.7222 70.8869 32.6288C70.8333 32.5345 70.763 32.4615 70.6743 32.4079C70.5856 32.3553 70.4839 32.3183 70.3693 32.298C70.2547 32.2776 70.1345 32.2675 70.0116 32.2675H68.7111V33.7387H70.117ZM70.1983 36.4151C70.3342 36.4151 70.4636 36.4022 70.5874 36.3754C70.7113 36.3486 70.8203 36.3042 70.9155 36.2432C71.0098 36.1813 71.0847 36.0972 71.141 35.9909C71.1974 35.8856 71.2252 35.7497 71.2252 35.5852C71.2252 35.2618 71.1337 35.0307 70.9506 34.8921C70.7676 34.7544 70.5255 34.6851 70.2251 34.6851H68.7111V36.4151H70.1983Z" fill="white"/>
<path d="M72.8601 31.188H74.4157L75.8926 33.6787L77.3604 31.188H78.9067L76.5655 35.0742V37.4946H75.1754V35.039L72.8601 31.188Z" fill="white"/>
<path d="M32.6229 18.6725C32.6275 25.8436 26.8166 31.6598 19.6452 31.6645C12.4738 31.6691 6.65602 25.8593 6.65186 18.6882C6.65186 18.6831 6.65186 18.678 6.65186 18.6725C6.64769 11.5013 12.4581 5.68508 19.6295 5.6809C26.8018 5.67631 32.6187 11.4861 32.6229 18.6572C32.6229 18.6618 32.6229 18.6674 32.6229 18.6725Z" fill="white"/>
<path d="M30.1934 8.09668C33.073 10.9759 34.513 14.5021 34.513 18.6725C34.513 22.8437 33.0979 26.332 30.2678 29.1373C27.2644 32.0919 23.7147 33.5687 19.6188 33.5687C15.5724 33.5687 12.0842 32.1039 9.15521 29.1743C6.22574 26.2451 4.76123 22.7448 4.76123 18.6725C4.76123 14.601 6.22574 11.0757 9.15521 8.09668C12.0098 5.21651 15.498 3.77665 19.6188 3.77665C23.7896 3.77664 27.3139 5.2165 30.1934 8.09668ZM11.0939 10.0337C8.65937 12.4925 7.44257 15.3727 7.44257 18.6766C7.44257 21.9796 8.64737 24.8353 11.0565 27.2437C13.466 29.653 16.3345 30.8572 19.6628 30.8572C22.9911 30.8572 25.884 29.641 28.343 27.2072C30.6777 24.9466 31.8456 22.1044 31.8456 18.6766C31.8456 15.2747 30.6588 12.3872 28.2867 10.0153C25.915 7.64385 23.0405 6.45766 19.6628 6.45766C16.285 6.45767 13.4281 7.64986 11.0939 10.0337ZM17.5005 17.2234C17.1284 16.4124 16.5716 16.0067 15.8289 16.0067C14.516 16.0067 13.8598 16.8906 13.8598 18.6577C13.8598 20.4251 14.516 21.3082 15.8289 21.3082C16.6959 21.3082 17.3151 20.878 17.6867 20.0158L19.5066 20.9847C18.6391 22.5258 17.3378 23.2965 15.6025 23.2965C14.2642 23.2965 13.192 22.8862 12.3869 22.0665C11.5805 21.2458 11.1785 20.1146 11.1785 18.6725C11.1785 17.2557 11.5934 16.131 12.4239 15.2979C13.2544 14.4647 14.2886 14.0483 15.5285 14.0483C17.3627 14.0483 18.6761 14.7711 19.4701 16.2151L17.5005 17.2234ZM26.0624 17.2234C25.6899 16.4124 25.1442 16.0067 24.4246 16.0067C23.0853 16.0067 22.4152 16.8906 22.4152 18.6577C22.4152 20.4251 23.0853 21.3082 24.4246 21.3082C25.293 21.3082 25.9011 20.878 26.2482 20.0158L28.1088 20.9847C27.2427 22.5258 25.9432 23.2965 24.2111 23.2965C22.8746 23.2965 21.8048 22.8862 21.0002 22.0665C20.197 21.2458 19.7945 20.1146 19.7945 18.6725C19.7945 17.2557 20.203 16.131 21.0196 15.2979C21.8357 14.4647 22.8746 14.0483 24.1372 14.0483C25.9681 14.0483 27.2797 14.7711 28.0708 16.2151L26.0624 17.2234Z" fill="black"/>
<path d="M72.6354 24.7188C78.2842 24.7188 82.8634 20.1401 82.8634 14.4919C82.8634 8.84379 78.2842 4.26506 72.6354 4.26506C66.9867 4.26506 62.4075 8.84379 62.4075 14.4919C62.4075 20.1401 66.9867 24.7188 72.6354 24.7188Z" fill="white"/>
<path d="M75.5947 11.5332C75.5947 11.139 75.2749 10.8197 74.882 10.8197H70.3642C69.9714 10.8197 69.6516 11.139 69.6516 11.5332V16.0501H70.9114V21.3987H74.3349V16.0501H75.5947V11.5332Z" fill="black"/>
<path d="M72.6233 10.2255C73.4767 10.2255 74.1686 9.53368 74.1686 8.68028C74.1686 7.82689 73.4767 7.13507 72.6233 7.13507C71.7698 7.13507 71.0779 7.82689 71.0779 8.68028C71.0779 9.53368 71.7698 10.2255 72.6233 10.2255Z" fill="black"/>
<path fill-rule="evenodd" clip-rule="evenodd" d="M72.6096 3.22443C69.5502 3.22443 66.9604 4.29185 64.8411 6.42669C62.6663 8.635 61.5793 11.249 61.5793 14.2669C61.5793 17.2848 62.6663 19.8803 64.8411 22.0521C67.0159 24.2235 69.6057 25.3094 72.6096 25.3094C75.6504 25.3094 78.2864 24.2151 80.5157 22.0244C82.6166 19.945 83.6675 17.3592 83.6675 14.2669C83.6675 11.1746 82.5981 8.56152 80.4612 6.42668C78.3225 4.29185 75.7059 3.22443 72.6096 3.22443ZM72.6373 5.2114C75.1439 5.2114 77.2725 6.09537 79.0231 7.86239C80.7921 9.61047 81.6766 11.7453 81.6766 14.2669C81.6766 16.8065 80.8106 18.9141 79.0785 20.5887C77.2531 22.3927 75.1069 23.2942 72.6373 23.2942C70.1667 23.2942 68.0381 22.4019 66.2515 20.6164C64.4631 18.8309 63.5702 16.7146 63.5702 14.2669C63.5702 11.8188 64.4732 9.6844 66.2792 7.8624C68.0113 6.09537 70.1307 5.2114 72.6373 5.2114Z" fill="black"/>
</svg>
