<svg width="40" height="40" viewBox="0 0 40 40" fill="none" xmlns="http://www.w3.org/2000/svg">
<path d="M24.9535 5.7199C21.6945 4.96273 18.305 4.96274 15.046 5.71993C13.1636 4.56451 11.7253 4.03431 10.6799 3.81091C10.1116 3.68945 9.66107 3.65912 9.32223 3.66817C9.15313 3.67269 9.0132 3.68698 8.90172 3.70413C8.84605 3.7127 8.79767 3.72195 8.75649 3.73098C8.73591 3.73549 8.71716 3.73994 8.70021 3.74422L8.67616 3.75049L8.66516 3.7535L8.65992 3.75496L8.65484 3.7564C8.65483 3.75641 8.65486 3.7564 8.65484 3.7564C8.65371 3.75693 8.65932 3.77206 9.02114 5.03722L8.65484 3.7564C8.2761 3.86472 7.96465 4.13496 7.80402 4.49465C7.3556 5.49875 7.11068 6.58178 7.08343 7.68112C7.06317 8.49807 7.16342 9.31198 7.37964 10.0969C6.8114 10.7852 6.34837 11.556 6.00721 12.3842C5.5594 13.4713 5.33034 14.636 5.33313 15.8117C5.33346 19.9519 6.55492 22.7355 8.63644 24.5242C10.0949 25.7774 11.8678 26.4442 13.643 26.826C13.3499 27.6406 13.2738 28.5022 13.3331 29.3802V30.9756C12.2469 31.2039 11.4968 31.1317 10.962 30.9552C10.2901 30.7334 9.77492 30.2873 9.28354 29.6468C9.03467 29.3224 8.80538 28.9661 8.56462 28.5763L8.41177 28.3274C8.22322 28.0196 8.01973 27.6873 7.81438 27.3845C7.30556 26.6341 6.55486 25.6964 5.33838 25.377L4.04875 25.0385L3.37158 27.6177L4.66121 27.9563C4.87306 28.0119 5.15195 28.2096 5.60729 28.8811C5.7746 29.1279 5.9342 29.3883 6.11641 29.6857C6.17365 29.7791 6.23326 29.8763 6.2959 29.9777C6.54618 30.3829 6.83325 30.8339 7.16772 31.2699C7.843 32.1502 8.76243 33.0374 10.1263 33.4875C11.0634 33.7968 12.1226 33.8711 13.3331 33.685V38.6667C13.3331 39.4031 13.9301 40 14.6665 40H25.3331C26.0695 40 26.6665 39.4031 26.6665 38.6667V29.1667C26.6665 28.3245 26.6298 27.5546 26.3928 26.8364C28.159 26.4635 29.9179 25.7961 31.3668 24.5419C33.4476 22.7406 34.6665 19.9319 34.6665 15.7667L34.6665 15.7624C34.6598 13.6857 33.9311 11.6853 32.6199 10.0969C32.8362 9.31201 32.9364 8.49808 32.9162 7.68112C32.8889 6.58178 32.644 5.49875 32.1956 4.49465C32.0349 4.13486 31.7233 3.86456 31.3444 3.75631L30.9781 5.03834C31.3444 3.75631 31.3406 3.75523 31.3394 3.75488L31.3341 3.75341L31.3231 3.75041L31.2991 3.74415C31.2822 3.73988 31.2634 3.73543 31.2428 3.73093C31.2017 3.72191 31.1533 3.71267 31.0976 3.70411C30.9862 3.68697 30.8462 3.67268 30.6771 3.66817C30.3382 3.65912 29.8876 3.68944 29.3191 3.8109C28.2735 4.03429 26.8352 4.56449 24.9535 5.7199Z" fill="#FFFFFF" fill-opacity="1"/>
</svg>
