<svg width="40" height="40" viewBox="0 0 40 40" fill="none" xmlns="http://www.w3.org/2000/svg">
<path fill-rule="evenodd" clip-rule="evenodd" d="M0 4C0 1.79086 1.79086 0 4 0H36C38.2091 0 40 1.79086 40 4V36C40 38.2091 38.2091 40 36 40H4C1.79086 40 0 38.2091 0 36V4ZM13.3333 13.3333H10.6667V10.6667H13.3333V13.3333ZM10.6667 29.3333V16H13.3333V29.3333H10.6667ZM22.6667 18.6667C20.4575 18.6667 18.6667 20.4575 18.6667 22.6667V29.3333H16V16H18.6667V17.3328C19.7809 16.4959 21.1659 16 22.6667 16C26.3486 16 29.3333 18.9848 29.3333 22.6667V29.3333H26.6667V22.6667C26.6667 20.4575 24.8758 18.6667 22.6667 18.6667Z" fill="#0D1018" fill-opacity="0.87"/>
</svg>
