<svg width="40" height="40" viewBox="0 0 40 40" fill="none" xmlns="http://www.w3.org/2000/svg">
<path fill-rule="evenodd" clip-rule="evenodd" d="M0 4C0 1.79086 1.79086 0 4 0H36C38.2091 0 40 1.79086 40 4V36C40 38.2091 38.2091 40 36 40H4C1.79086 40 0 38.2091 0 36V4ZM10.6667 13.3333H8V10.6667H12C12.4363 10.6667 12.8236 10.8762 13.0668 11.2001L20.0003 20.4445L26.9157 11.2239C27.1577 10.8865 27.5532 10.6667 28 10.6667H32V13.3333H29.3333V26.6667H32V29.3333H24V26.6667H26.6667V16.0004L20.0003 24.8889L13.3333 15.9997V26.6667H16V29.3333H8V26.6667H10.6667V13.3333Z" fill="#0D1018" fill-opacity="0.87"/>
</svg>
