<svg width="40" height="40" viewBox="0 0 40 40" fill="none" xmlns="http://www.w3.org/2000/svg">
<path d="M20 0C8.9725 0 0 9.26732 0 20.6572C0 29.155 5.1575 36.8937 12.83 39.9122C13.15 40.0439 13.51 40.0232 13.82 39.8683C14.13 39.7108 14.365 39.4319 14.4675 39.0911L18.2175 26.7226C18.395 26.1365 18.15 25.5013 17.63 25.2069C16.0075 24.2825 15 22.5395 15 20.6572C15 17.809 17.2425 15.4929 20 15.4929C22.7575 15.4929 25 17.809 25 20.6572C25 22.5395 23.9925 24.2825 22.37 25.2095C21.85 25.5038 21.6025 26.139 21.7825 26.7252L25.5325 39.0937C25.635 39.4345 25.87 39.7134 26.18 39.8709C26.3525 39.9561 26.54 40 26.725 40C26.875 40 27.0275 39.9716 27.17 39.9148C34.845 36.8937 40 29.155 40 20.6572C40 9.26732 31.0275 0 20 0Z" fill="#FFFFFF" fill-opacity="1"/>
</svg>
