<svg width="40" height="40" viewBox="0 0 40 40" fill="none" xmlns="http://www.w3.org/2000/svg">
<path fill-rule="evenodd" clip-rule="evenodd" d="M19.9996 0C13.4549 0 7.645 3.14464 3.9982 8C1.78989 8.00098 0 9.79146 0 12V28C0 30.2085 1.78988 31.999 3.99819 32C7.64499 36.8554 13.4549 40 19.9996 40C31.0452 40 39.9995 31.0457 39.9995 20C39.9995 8.9543 31.0452 0 19.9996 0ZM2.66667 12C2.66667 11.2636 3.26362 10.6667 4 10.6667H20C20.7244 10.6667 21.3139 11.2443 21.3329 11.9641V28.0359C21.3139 28.7557 20.7244 29.3333 20 29.3333H4C3.26362 29.3333 2.66667 28.7364 2.66667 28V12Z" fill="#672448"/>
<path fill-rule="evenodd" clip-rule="evenodd" d="M13.3333 13.3333H5.33325V26.6667H7.99992V24H13.3333C16.2788 24 18.6666 21.6122 18.6666 18.6667C18.6666 15.7212 16.2788 13.3333 13.3333 13.3333ZM13.3333 21.3333H7.99992V16H13.3333C14.806 16 15.9999 17.1939 15.9999 18.6667C15.9999 20.1394 14.806 21.3333 13.3333 21.3333Z" fill="#FF90A0"/>
</svg>
