<svg width="40" height="40" viewBox="0 0 40 40" fill="none" xmlns="http://www.w3.org/2000/svg">
<path fill-rule="evenodd" clip-rule="evenodd" d="M4.57143 0C2.0467 0 0 2.0467 0 4.57143V28.9524C0 31.4771 2.0467 33.5238 4.57143 33.5238H35.4286C37.9533 33.5238 40 31.4771 40 28.9524V4.57143C40 2.0467 37.9533 0 35.4286 0H4.57143ZM22.1333 11.1798C22.1333 10.995 21.9956 10.8244 21.7727 10.7333C21.5498 10.6422 21.2762 10.6447 21.0565 10.7397L14.1143 13.7434H11.4667C10.2898 13.7434 9.33333 14.431 9.33333 15.2822V19.3845C9.33333 20.2357 10.2898 20.9232 11.4667 20.9232H14.1143L21.0565 23.927C21.2762 24.022 21.5498 24.0245 21.7727 23.9334C21.9956 23.8423 22.1333 23.6717 22.1333 23.4869V11.1798ZM29.2444 11.6929V22.9818H30.6667V11.6929H29.2444ZM26.4 20.9293V13.7454H27.8222V20.9293H26.4ZM23.5556 15.798V18.8767H24.9778V15.798H23.5556ZM30.6667 40H9.33333V37.3333H30.6667V40Z" fill="#FFFFFF" fill-opacity="0.87"/>
</svg>
