<svg width="40" height="40" viewBox="0 0 40 40" fill="none" xmlns="http://www.w3.org/2000/svg">
<path d="M39.9396 3.91179C39.9041 3.37693 39.5518 2.91532 39.0452 2.74C38.5387 2.56468 37.9764 2.70975 37.6179 3.10825C36.6963 4.13267 35.5315 4.82684 34.3493 5.14335C32.7052 3.60835 30.496 2.66666 28.0684 2.66666C22.8582 2.66666 18.638 6.89635 18.638 12.1096V13.2824C10.6613 12.666 6.39567 6.60657 5.24466 3.53247C5.05862 3.03557 4.59566 2.69627 4.0658 2.66849C3.53594 2.64071 3.04004 2.92973 2.80305 3.40445C0.0117817 8.99562 -0.418287 14.4185 1.6104 19.0363C3.38752 23.0814 6.96148 26.3037 12.0269 28.4385C9.72477 30.07 5.8501 32 1.33344 32C0.746056 32 0.227866 32.3844 0.057452 32.9465C-0.112962 33.5086 0.104548 34.116 0.593046 34.4422C4.92399 37.334 9.46305 37.3336 13.6849 37.3333L13.8141 37.3333C26.7759 37.3333 37.2799 26.8101 37.2799 13.8333V12.5579C38.2491 11.5729 39.0036 10.5645 39.466 9.26101C39.982 7.8065 40.086 6.11994 39.9396 3.91179Z" fill="#FFFFFF" fill-opacity="1"/>
</svg>
