<svg width="40" height="40" viewBox="0 0 40 40" fill="none" xmlns="http://www.w3.org/2000/svg">
<path d="M18.6667 0.0437317C8.24263 0.729846 0 9.40234 0 20C0 31.0457 8.9543 40 20 40C25.043 40 29.6501 38.1335 33.1681 35.0536L19.0679 20.9534C18.8142 20.7054 18.6667 20.3628 18.6667 20V0.0437317Z" fill="#672448"/>
<path d="M37.2555 9.88161C33.9926 4.32917 28.1262 0.490829 21.3335 0.0437317V17.8426L37.2555 9.88161Z" fill="#FF90A0"/>
<path d="M35.0538 33.168C38.1336 29.65 40 25.043 40 20C40 17.2581 39.4483 14.645 38.4497 12.2659L22.251 20.3652L35.0538 33.168Z" fill="#FF90A0"/>
</svg>
