<svg width="40" height="40" viewBox="0 0 40 40" fill="none" xmlns="http://www.w3.org/2000/svg">
<path fill-rule="evenodd" clip-rule="evenodd" d="M9.33333 0C7.1242 0 5.33333 1.79086 5.33333 4V8H4C1.79086 8 0 9.79086 0 12V28C0 30.2091 1.79086 32 4 32H5.33333V36C5.33333 38.2091 7.12419 40 9.33333 40H36C38.2091 40 40 38.2091 40 36V4C40 1.79086 38.2091 0 36 0H9.33333ZM4 10.6667C3.26362 10.6667 2.66667 11.2636 2.66667 12V28C2.66667 28.7364 3.26362 29.3333 4 29.3333H20C20.7364 29.3333 21.3333 28.7364 21.3333 28V12C21.3333 11.2636 20.7364 10.6667 20 10.6667H4Z" fill="#672448"/>
<path d="M10.1144 19.9999L5.72388 15.6094L7.6095 13.7238L12 18.1143L16.3905 13.7238L18.2762 15.6094L13.8856 19.9999L18.2762 24.3904L16.3905 26.2761L12 21.8855L7.6095 26.2761L5.72388 24.3904L10.1144 19.9999Z" fill="#FF90A0"/>
</svg>
