<svg width="152" height="104" viewBox="0 0 152 104" fill="none" xmlns="http://www.w3.org/2000/svg">
<g clip-path="url(#clip0)">
<g opacity="0.24" clip-path="url(#clip1)">
<path d="M174.964 24.5361C183.982 24.5361 183.982 11.4189 193 11.4189V104H-438.254V95.2748C-428.484 95.2748 -429.236 100.1 -420.218 100.1C-411.2 100.1 -411.2 86.3973 -402.182 86.3973C-393.164 86.3973 -394.667 90.6135 -384.146 90.6135C-373.625 90.6135 -376.631 98.5072 -366.11 98.5072C-355.589 98.5072 -357.844 95.509 -348.075 95.509C-338.305 95.509 -340.184 81.2208 -330.039 81.2208C-319.894 81.2208 -322.524 85.882 -312.003 85.882C-301.482 85.882 -303.361 92.3 -293.967 92.3C-284.573 92.3 -286.076 70.9847 -275.931 70.9847C-265.786 70.9847 -266.913 78.3631 -257.895 78.3631C-248.878 78.3631 -250.38 68.0334 -239.86 68.0334C-229.339 68.0334 -231.593 74.6388 -221.824 74.6388C-212.054 74.6388 -213.557 47.6316 -203.788 47.6316C-194.019 47.6316 -195.897 55.1505 -185.752 55.1505C-175.607 55.1505 -178.237 60.1162 -167.716 60.1162C-157.195 60.1162 -159.826 47.2334 -149.681 47.2334C-139.535 47.2334 -142.166 53.5577 -131.645 53.5577C-121.124 53.5577 -123.003 43.1343 -113.609 43.1343C-104.215 43.1343 -105.342 25.7072 -95.5731 25.7072C-85.8037 25.7072 -87.3067 54.8694 -77.5373 54.8694C-67.7679 54.8694 -68.8951 34.4442 -59.5014 34.4442C-50.1078 34.4442 -51.9865 43.3919 -41.4656 43.3919C-30.9447 43.3919 -33.1992 51.4262 -23.4298 51.4262C-13.6604 51.4262 -14.7876 38.1217 -5.39398 38.1217C3.99966 38.1217 3.24817 50.7703 12.6418 50.7703C22.0355 50.7703 20.9082 45.1487 30.6776 45.1487C40.4471 45.1487 38.9441 33.5541 48.7135 33.5541C58.4829 33.5541 56.9799 38.1919 66.7493 38.1919C76.5187 38.1919 75.7672 21.2568 84.7851 21.2568C93.803 21.2568 92.3 44.4694 102.821 44.4694C113.342 44.4694 110.712 28.7054 120.857 28.7054C131.002 28.7054 129.499 35.1937 138.893 35.1937C148.286 35.1937 147.535 19.0316 156.928 19.0316C166.322 19.0316 165.946 24.5361 174.964 24.5361Z" fill="#4B4797"/>
</g>
<g clip-path="url(#clip2)">
<path d="M193 11.419C183.982 11.419 183.982 24.5361 174.964 24.5361C165.946 24.5361 166.322 19.0316 156.928 19.0316C147.535 19.0316 148.286 35.1938 138.893 35.1938C129.499 35.1938 131.002 28.7055 120.857 28.7055C110.712 28.7055 113.342 44.4695 102.821 44.4695C92.3 44.4695 93.803 21.2569 84.7851 21.2569C75.7672 21.2569 76.5187 38.192 66.7493 38.192C56.9799 38.192 58.4829 33.5542 48.7135 33.5542C38.9441 33.5542 40.447 45.1488 30.6776 45.1488C20.9082 45.1488 22.0355 50.7704 12.6418 50.7704C3.24817 50.7704 3.99967 38.1217 -5.39399 38.1217C-14.7876 38.1217 -13.6604 51.4262 -23.4298 51.4262C-33.1992 51.4262 -30.9447 43.392 -41.4656 43.392C-51.9865 43.392 -50.1078 34.4443 -59.5014 34.4443C-68.8951 34.4443 -67.7679 54.8695 -77.5373 54.8695C-87.3067 54.8695 -85.8037 25.7073 -95.5731 25.7073C-105.342 25.7073 -104.215 43.1343 -113.609 43.1343C-123.003 43.1343 -121.124 53.5578 -131.645 53.5578C-142.166 53.5578 -139.535 47.2334 -149.681 47.2334C-159.826 47.2334 -157.195 60.1163 -167.716 60.1163C-178.237 60.1163 -175.607 55.1506 -185.752 55.1506C-195.897 55.1506 -194.019 47.6316 -203.788 47.6316C-213.557 47.6316 -212.054 74.6388 -221.824 74.6388C-231.593 74.6388 -229.339 68.0334 -239.86 68.0334C-250.381 68.0334 -248.878 78.3632 -257.895 78.3632C-266.913 78.3632 -265.786 70.9848 -275.931 70.9848C-286.076 70.9848 -284.573 92.3001 -293.967 92.3001C-303.361 92.3001 -301.482 85.8821 -312.003 85.8821C-322.524 85.8821 -319.894 81.2208 -330.039 81.2208C-340.184 81.2208 -338.305 95.5091 -348.075 95.5091C-357.844 95.5091 -355.589 98.5073 -366.11 98.5073C-376.631 98.5073 -373.625 90.6136 -384.146 90.6136C-394.667 90.6136 -393.164 86.3974 -402.182 86.3974C-411.2 86.3974 -411.2 100.1 -420.218 100.1C-429.236 100.1 -428.484 95.2749 -438.254 95.2749" stroke="#4B4797" stroke-width="0.751492"/>
</g>
<rect x="0.375746" y="-0.375746" width="6.76343" height="6.76343" rx="3.38172" transform="matrix(-1 0 0 1 142.65 31.7029)" fill="#4B4797" stroke="white" stroke-width="0.751492"/>
<rect x="0.375746" y="-0.375746" width="6.76343" height="6.76343" rx="3.38172" transform="matrix(-1 0 0 1 124.614 25.203)" fill="#4B4797" stroke="white" stroke-width="0.751492"/>
<rect x="0.375746" y="-0.375746" width="6.76343" height="6.76343" rx="3.38172" transform="matrix(-1 0 0 1 88.543 17.728)" fill="#4B4797" stroke="white" stroke-width="0.751492"/>
<rect x="0.375746" y="-0.375746" width="6.76343" height="6.76343" rx="3.38172" transform="matrix(-1 0 0 1 70.5069 34.953)" fill="#4B4797" stroke="white" stroke-width="0.751492"/>
<rect x="0.375746" y="-0.375746" width="6.76343" height="6.76343" rx="3.38172" transform="matrix(-1 0 0 1 52.4712 30.4031)" fill="#4B4797" stroke="white" stroke-width="0.751492"/>
<rect x="0.375746" y="-0.375746" width="6.76343" height="6.76343" rx="3.38172" transform="matrix(-1 0 0 1 34.4356 41.7778)" fill="#4B4797" stroke="white" stroke-width="0.751492"/>
<rect x="0.375746" y="-0.375746" width="6.76343" height="6.76343" rx="3.38172" transform="matrix(-1 0 0 1 106.579 41.128)" fill="#4B4797" stroke="white" stroke-width="0.751492"/>
<rect x="0.375746" y="-0.375746" width="6.76343" height="6.76343" rx="3.38172" transform="matrix(-1 0 0 1 16.3994 47.628)" fill="#4B4797" stroke="white" stroke-width="0.751492"/>
</g>
<defs>
<clipPath id="clip0">
<rect width="152" height="104" fill="white"/>
</clipPath>
<clipPath id="clip1">
<rect width="232.904" height="92.581" fill="white" transform="matrix(-1 0 0 1 193 11.4189)"/>
</clipPath>
<clipPath id="clip2">
<rect width="232.904" height="92.625" fill="white" transform="matrix(-1 0 0 1 193 11.375)"/>
</clipPath>
</defs>
</svg>
