<svg width="136" height="104" viewBox="0 0 136 104" fill="none" xmlns="http://www.w3.org/2000/svg">
<g clip-path="url(#clip0)">
<g opacity="0.4">
<g opacity="0.8">
<rect width="13.5452" height="54.3533" rx="0.564382" transform="matrix(-1 0 0 1 139.967 49.9479)" fill="#4B4797"/>
</g>
</g>
<g opacity="0.4">
<g opacity="0.8">
<rect width="13.5452" height="71.567" rx="0.564382" transform="matrix(-1 0 0 1 124.164 32.7342)" fill="#4B4797"/>
</g>
</g>
<g opacity="0.4">
<g opacity="0.8">
<rect width="13.5452" height="91.6026" rx="0.564382" transform="matrix(-1 0 0 1 108.361 12.6986)" fill="#4B4797"/>
</g>
</g>
<g opacity="0.4">
<g opacity="0.8">
<rect width="13.5452" height="95.2711" rx="0.564382" transform="matrix(-1 0 0 1 45.1504 9.03014)" fill="#4B4797"/>
</g>
</g>
<g opacity="0.4">
<g opacity="0.8">
<rect width="13.5452" height="100.351" rx="0.564382" transform="matrix(-1 0 0 1 29.3477 3.9507)" fill="#4B4797"/>
</g>
</g>
<g opacity="0.4">
<g opacity="0.8">
<rect width="13.5452" height="104.301" rx="0.564382" transform="matrix(-1 0 0 1 13.5454 1.52588e-05)" fill="#4B4797"/>
</g>
</g>
<g opacity="0.4">
<g opacity="0.8">
<rect width="13.5452" height="86.8053" rx="0.564382" transform="matrix(-1 0 0 1 92.5586 17.4959)" fill="#4B4797"/>
</g>
</g>
<g opacity="0.4">
<g opacity="0.8">
<rect width="13.5452" height="84.83" rx="0.564382" transform="matrix(-1 0 0 1 76.7559 19.4712)" fill="#4B4797"/>
</g>
</g>
<g opacity="0.4">
<g opacity="0.8">
<rect width="13.5452" height="89.6273" rx="0.564382" transform="matrix(-1 0 0 1 60.9531 14.674)" fill="#4B4797"/>
</g>
</g>
<g opacity="0.8">
<rect width="13.5452" height="27.5506" rx="0.564382" transform="matrix(-1 0 0 1 139.967 75.725)" fill="#4B4797"/>
</g>
<g opacity="0.8">
<rect width="13.5452" height="44.0958" rx="0.564382" transform="matrix(-1 0 0 1 124.164 60.125)" fill="#4B4797"/>
</g>
<g opacity="0.8">
<rect width="13.5452" height="40.4273" rx="0.564382" transform="matrix(-1 0 0 1 108.361 64.35)" fill="#4B4797"/>
</g>
<g opacity="0.8">
<rect width="13.5452" height="35.6054" rx="0.564382" transform="matrix(-1 0 0 1 45.1504 67.6)" fill="#4B4797"/>
</g>
<g opacity="0.8">
<rect width="13.5452" height="49.7396" rx="0.564382" transform="matrix(-1 0 0 1 29.3477 53.625)" fill="#4B4797"/>
</g>
<g opacity="0.8">
<rect width="13.5452" height="53.2794" rx="0.564382" transform="matrix(-1 0 0 1 13.5454 50.7)" fill="#4B4797"/>
</g>
<g opacity="0.8">
<rect width="13.5452" height="41.6849" rx="0.564382" transform="matrix(-1 0 0 1 92.5586 61.75)" fill="#4B4797"/>
</g>
<g opacity="0.8">
<rect width="13.5452" height="32.5013" rx="0.564382" transform="matrix(-1 0 0 1 76.7559 71.175)" fill="#4B4797"/>
</g>
<g opacity="0.8">
<rect width="13.5452" height="38.0164" rx="0.564382" transform="matrix(-1 0 0 1 60.9531 65.975)" fill="#4B4797"/>
</g>
<rect width="13.5452" height="11.852" rx="0.564382" transform="matrix(-1 0 0 1 139.967 92.4492)" fill="#0F1525"/>
<rect width="13.5452" height="17.2137" rx="0.564382" transform="matrix(-1 0 0 1 124.164 87.0876)" fill="#0F1525"/>
<rect width="13.5452" height="20.3178" rx="0.564382" transform="matrix(-1 0 0 1 108.361 83.9835)" fill="#0F1525"/>
<rect width="13.5452" height="24.5506" rx="0.564382" transform="matrix(-1 0 0 1 45.1504 79.7506)" fill="#0F1525"/>
<rect width="13.5452" height="28.5013" rx="0.564382" transform="matrix(-1 0 0 1 29.3477 75.7999)" fill="#0F1525"/>
<rect width="13.5452" height="30.4767" rx="0.564382" transform="matrix(-1 0 0 1 13.5454 73.8246)" fill="#0F1525"/>
<rect width="13.5452" height="15.8027" rx="0.564382" transform="matrix(-1 0 0 1 92.5586 88.4985)" fill="#0F1525"/>
<rect width="13.5452" height="22.2931" rx="0.564382" transform="matrix(-1 0 0 1 76.7559 82.0081)" fill="#0F1525"/>
<rect width="13.5452" height="18.6246" rx="0.564382" transform="matrix(-1 0 0 1 60.9531 85.6766)" fill="#0F1525"/>
</g>
<defs>
<clipPath id="clip0">
<rect width="136" height="104" fill="white"/>
</clipPath>
</defs>
</svg>
