<svg width="152" height="104" viewBox="0 0 152 104" fill="none" xmlns="http://www.w3.org/2000/svg">
<g clip-path="url(#clip0)">
<g opacity="0.16" clip-path="url(#clip1)">
<path d="M18.0842 28.7584L0.0483398 13.5427V120.935H631.302V35.4153L613.266 22.9167L595.23 55.2772L577.194 51.12L559.159 75.3564L541.123 65.8466L523.087 94.5119L505.051 78.8071L487.015 107.364L468.98 82.6382L450.944 91.197L432.908 43.0231L414.872 35.6055L396.836 52.5329L378.801 58.2388L360.765 27.8074L342.729 43.0231L324.693 50.3592L306.657 38.2682L288.621 75.3564L270.586 63.9447L252.55 91.5231L234.514 50.631L216.478 81.0623L198.442 104.837L180.407 59.1898L162.371 67.7486L144.335 39.2192L126.299 50.631L108.263 24.9545L90.2274 63.9447L72.1916 84.8662L54.1558 41.1212L36.12 52.5329L18.0842 28.7584Z" fill="#4B4797"/>
</g>
<g clip-path="url(#clip2)">
<path d="M0.0483398 13.5427L18.0842 28.7584L36.12 52.5329L54.1558 41.1212L72.1916 84.8662L90.2274 63.9447L108.263 24.9545L126.299 50.631L144.335 39.2192L162.371 67.7486L180.407 59.1898L198.442 104.837L216.478 81.0623L234.514 50.631L252.55 91.5231L270.586 63.9447L288.621 75.3564L306.657 38.2682L324.693 50.3592L342.729 43.0231L360.765 27.8074L378.8 58.2388L396.836 52.5329L414.872 35.6055L432.908 43.0231L450.944 91.197L468.98 82.6382L487.015 107.364L505.051 78.8071L523.087 94.5119L541.123 65.8466L559.159 75.3564L577.194 51.12L595.23 55.2772L613.266 22.9167L631.302 35.4153" stroke="#4B4797" stroke-width="0.751492"/>
</g>
<rect x="14.7024" y="25.1751" width="6.76343" height="6.76343" rx="3.38172" fill="#4B4797" stroke="white" stroke-width="0.751492"/>
<rect x="32.738" y="48.9258" width="6.76343" height="6.76343" rx="3.38172" fill="#4B4797" stroke="white" stroke-width="0.751492"/>
<rect x="50.7737" y="37.6159" width="6.76343" height="6.76343" rx="3.38172" fill="#4B4797" stroke="white" stroke-width="0.751492"/>
<rect x="68.8098" y="81.3473" width="6.76343" height="6.76343" rx="3.38172" fill="#4B4797" stroke="white" stroke-width="0.751492"/>
<rect x="-3.33375" y="9.71807" width="6.76343" height="6.76343" rx="3.38172" fill="#4B4797" stroke="white" stroke-width="0.751492"/>
<rect x="104.881" y="21.405" width="6.76343" height="6.76343" rx="3.38172" fill="#4B4797" stroke="white" stroke-width="0.751492"/>
<rect x="122.917" y="47.4177" width="6.76343" height="6.76343" rx="3.38172" fill="#4B4797" stroke="white" stroke-width="0.751492"/>
<rect x="140.953" y="36.1079" width="6.76343" height="6.76343" rx="3.38172" fill="#4B4797" stroke="white" stroke-width="0.751492"/>
<rect x="86.8454" y="60.6125" width="6.76343" height="6.76343" rx="3.38172" fill="#4B4797" stroke="white" stroke-width="0.751492"/>
</g>
<defs>
<clipPath id="clip0">
<rect width="152" height="104" fill="white"/>
</clipPath>
<clipPath id="clip1">
<rect width="270.904" height="107.393" fill="white" transform="translate(0.0483398 13.5427)"/>
</clipPath>
<clipPath id="clip2">
<rect width="270.904" height="93.8209" fill="white" transform="translate(0.0483398 13.5427)"/>
</clipPath>
</defs>
</svg>
